<?xml version="1.0" standalone="no"?>
<!DOCTYPE svg PUBLIC "-//W3C//DTD SVG 20010904//EN"
 "http://www.w3.org/TR/2001/REC-SVG-20010904/DTD/svg10.dtd">
<svg version="1.0" xmlns="http://www.w3.org/2000/svg"
 width="1024.000000pt" height="1024.000000pt" viewBox="0 0 1024.000000 1024.000000"
 preserveAspectRatio="xMidYMid meet">
<metadata>
Created by potrace 1.14, written by Peter Selinger 2001-2017
</metadata>
<g transform="translate(0.000000,1024.000000) scale(0.100000,-0.100000)"
fill="#000000" stroke="none">
<path d="M4880 8613 c0 -5 4 -13 8 -18 31 -36 65 -157 65 -235 1 -81 -43 -229
-79 -271 -8 -8 -14 -23 -14 -32 0 -9 -4 -17 -10 -17 -5 0 -10 -4 -10 -10 0 -5
-33 -64 -72 -131 -40 -67 -73 -125 -73 -128 -1 -3 -13 -29 -27 -57 -30 -56
-64 -153 -76 -211 -13 -68 -6 -244 12 -308 70 -239 248 -417 457 -455 60 -11
230 -7 251 6 4 3 21 8 36 10 15 3 47 14 71 25 24 10 50 19 57 19 8 0 14 4 14
9 0 5 17 17 37 26 45 22 162 136 193 190 13 22 27 42 30 45 12 10 59 127 80
199 29 98 35 151 35 301 0 143 -6 195 -36 300 -11 41 -22 83 -24 93 -8 38
-107 225 -150 282 -132 176 -302 294 -499 344 -92 24 -276 40 -276 24z"/>
<path d="M3288 7385 c-2 -2 -32 -6 -66 -9 -133 -14 -328 -62 -392 -96 -12 -6
-29 -13 -38 -15 -18 -4 -77 -29 -102 -44 -8 -5 -48 -28 -88 -51 -40 -24 -89
-56 -110 -71 -20 -16 -50 -39 -65 -51 -66 -50 -217 -214 -172 -186 22 13 127
22 260 22 145 0 195 -6 282 -33 53 -16 153 -63 153 -72 0 -5 7 -9 14 -9 26 0
186 -168 186 -195 0 -7 7 -16 16 -19 9 -4 14 -9 11 -13 -4 -3 5 -24 18 -47 25
-43 90 -231 100 -289 13 -74 62 -205 85 -227 3 -3 18 -24 34 -47 62 -92 191
-185 318 -229 75 -27 88 -30 148 -40 19 -3 38 -8 43 -11 4 -2 7 0 7 6 0 7 9 7
23 2 22 -8 58 -7 132 2 168 22 306 116 419 287 44 68 100 189 91 198 -2 3 -1
10 5 16 29 36 33 267 6 374 -3 12 -8 30 -10 40 -16 66 -113 272 -127 272 -5 0
-9 5 -9 11 0 6 -11 25 -25 43 -14 18 -25 35 -25 39 0 15 -124 144 -177 183
-21 16 -40 32 -43 35 -3 3 -41 27 -85 52 -83 48 -238 112 -295 122 -18 3 -36
8 -40 10 -4 2 -20 7 -36 9 -16 3 -38 8 -49 10 -75 14 -137 19 -257 21 -76 1
-139 1 -140 0z"/>
<path d="M6565 7254 c-107 -18 -130 -22 -130 -24 0 -1 -10 -3 -23 -6 -155 -29
-361 -149 -521 -303 -131 -127 -197 -226 -242 -366 -32 -96 -32 -249 0 -353
39 -129 120 -263 215 -354 45 -44 152 -118 171 -118 6 0 17 -6 24 -12 6 -7 15
-13 19 -14 4 0 27 -6 52 -13 73 -21 81 -22 171 -23 86 0 208 25 270 57 16 9
29 12 29 8 0 -5 4 -3 8 3 4 6 26 21 49 32 96 49 274 206 371 329 19 23 41 51
50 62 10 11 27 33 39 48 12 15 30 38 40 49 10 12 38 45 63 74 154 182 313 285
492 320 62 12 184 15 233 6 17 -3 50 -8 74 -11 23 -3 47 -7 51 -10 22 -14 -18
79 -61 142 -78 112 -235 235 -403 314 -81 37 -290 111 -353 124 -75 15 -171
33 -223 41 -88 12 -383 11 -465 -2z"/>
<path d="M5052 6550 c-70 -23 -120 -66 -149 -130 -22 -47 -26 -66 -25 -125 1
-138 128 -254 264 -242 86 8 124 23 171 72 54 55 72 100 71 175 0 79 -6 103
-39 150 -35 50 -63 73 -115 94 -61 25 -115 26 -178 6z"/>
<path d="M1758 5865 c-2 -2 -47 -6 -100 -10 -53 -3 -107 -8 -120 -10 -13 -2
-45 -6 -73 -10 -411 -49 -824 -201 -1076 -395 -57 -44 -167 -154 -204 -205
-16 -22 -34 -43 -39 -47 -6 -4 -7 -8 -3 -8 5 0 -1 -11 -11 -25 -22 -27 -78
-155 -86 -195 -3 -14 -8 -36 -11 -50 -14 -54 -13 -226 1 -295 29 -139 129
-293 244 -378 32 -24 184 -96 213 -101 12 -3 22 -5 22 -6 0 -3 57 -16 110 -24
91 -15 115 -17 230 -16 156 1 228 11 340 46 68 22 195 84 195 95 0 5 6 9 13 9
17 0 116 94 159 150 53 70 108 186 123 261 53 264 -34 528 -227 685 -34 27
-114 68 -165 84 -57 17 -57 22 1 35 6 1 22 5 36 8 114 30 235 42 410 42 225
-1 353 -21 570 -90 73 -23 238 -98 307 -138 47 -28 137 -110 173 -156 14 -18
30 -38 35 -44 75 -88 176 -341 200 -502 2 -11 6 -33 9 -50 5 -30 12 -82 23
-180 3 -27 7 -441 9 -920 1 -478 5 -897 8 -930 21 -226 112 -415 273 -565 33
-30 66 -59 75 -65 8 -5 33 -22 54 -36 64 -43 125 -74 209 -107 113 -44 222
-71 380 -92 64 -8 353 -5 395 4 14 3 45 9 70 12 25 3 48 8 51 10 3 2 21 6 40
9 54 10 178 55 254 92 84 42 161 98 217 159 l41 44 16 -22 c31 -46 156 -148
179 -148 6 0 12 -4 14 -8 4 -10 135 -72 152 -72 7 0 16 -3 20 -7 3 -4 13 -8
21 -10 34 -7 40 -9 50 -15 6 -3 26 -9 46 -12 20 -3 42 -8 50 -10 8 -3 32 -8
54 -11 22 -4 51 -9 65 -11 38 -8 384 -12 395 -6 5 3 25 7 45 9 58 5 80 10 196
38 64 16 118 35 204 73 58 25 190 103 190 112 0 5 8 11 18 14 25 8 122 103
169 167 82 109 150 268 169 399 3 19 7 420 9 890 3 888 7 1043 31 1164 2 12 7
41 10 66 3 25 8 48 10 51 2 3 6 20 9 38 17 98 131 376 163 401 4 3 20 23 36
45 35 47 133 145 145 145 5 0 11 3 13 8 18 41 353 183 490 207 17 3 34 8 38
10 3 2 29 7 56 11 27 3 51 7 54 9 23 14 412 29 434 17 5 -3 32 -7 60 -8 28 -2
62 -6 76 -10 14 -3 36 -8 50 -10 39 -7 123 -25 140 -31 8 -3 -16 -16 -55 -30
-38 -14 -77 -31 -86 -39 -8 -8 -21 -14 -27 -14 -7 0 -12 -4 -12 -10 0 -5 -6
-10 -12 -10 -7 0 -34 -22 -59 -48 -136 -141 -192 -278 -193 -477 0 -105 2
-124 22 -206 40 -157 168 -317 326 -407 196 -111 490 -145 772 -88 138 28 279
101 369 190 127 127 186 281 180 470 -1 56 -5 112 -9 126 -3 14 -9 39 -12 55
-3 17 -10 35 -14 40 -4 6 -10 22 -14 38 -8 36 -86 167 -133 225 -21 25 -60 66
-87 91 -27 25 -54 51 -61 58 -24 23 -185 132 -185 125 0 -4 -4 -2 -8 4 -18 26
-326 165 -422 190 -8 2 -64 18 -125 34 -60 17 -121 32 -135 34 -14 2 -46 9
-72 15 -27 6 -51 11 -55 10 -5 -1 -10 0 -13 1 -3 1 -14 3 -25 4 -11 2 -42 6
-70 10 -82 12 -97 14 -181 22 -109 10 -539 11 -654 0 -52 -4 -107 -9 -122 -9
-16 0 -28 -3 -28 -6 0 -3 -17 -6 -37 -7 -79 -2 -306 -45 -443 -84 -41 -11 -82
-23 -91 -25 -8 -2 -51 -17 -95 -34 -43 -17 -85 -31 -91 -31 -7 0 -13 -4 -13
-8 0 -4 -10 -8 -21 -9 -12 -1 -29 -9 -38 -17 -10 -9 -23 -16 -29 -16 -11 0
-63 -27 -142 -73 -332 -193 -571 -468 -700 -804 -29 -75 -75 -225 -84 -273 -3
-14 -9 -48 -15 -77 -6 -29 -13 -71 -16 -95 -2 -24 -8 -65 -12 -93 -4 -27 -7
-426 -8 -885 -1 -889 0 -871 -50 -971 -62 -125 -172 -188 -320 -185 -100 3
-165 28 -226 87 -51 50 -89 121 -111 207 -9 35 -12 481 -14 1727 -1 924 -3
1683 -3 1686 -1 4 -55 7 -121 7 l-120 1 -1 -27 c0 -15 -2 -774 -3 -1687 -2
-913 -6 -1673 -10 -1690 -46 -198 -149 -300 -316 -312 -218 -16 -363 120 -386
364 -3 28 -6 410 -8 850 -2 439 -6 816 -9 838 -18 125 -24 162 -33 207 -3 15
-5 30 -5 33 0 2 -9 34 -19 70 -10 36 -16 65 -13 65 3 0 1 6 -5 13 -6 6 -10 14
-10 17 2 11 -37 119 -63 176 -16 34 -29 64 -29 68 0 3 -25 48 -55 98 -30 50
-55 94 -55 99 0 4 -3 9 -7 11 -5 2 -28 30 -53 63 -63 83 -224 243 -292 290
-73 51 -194 128 -211 135 -12 6 -29 14 -37 20 -13 9 -89 44 -205 95 -40 17
-169 62 -203 70 -9 3 -60 16 -112 30 -52 13 -110 27 -128 30 -19 3 -37 7 -41
9 -3 2 -30 7 -60 10 -29 4 -56 8 -60 10 -3 2 -33 7 -66 10 -33 3 -71 8 -85 10
-78 14 -661 32 -672 21z"/>
<path d="M2650 4345 c-25 -19 -61 -42 -80 -53 -19 -10 -44 -23 -55 -29 -74
-40 -274 -113 -348 -127 -12 -3 -22 -5 -22 -6 0 -3 -199 -48 -284 -65 -14 -2
-47 -9 -75 -14 -28 -6 -62 -12 -76 -15 -14 -2 -90 -16 -170 -31 -80 -15 -156
-29 -170 -31 -14 -3 -56 -12 -95 -20 -38 -8 -79 -16 -90 -18 -11 -2 -30 -6
-42 -10 -24 -8 -54 -15 -98 -23 -16 -3 -37 -8 -45 -13 -8 -4 -40 -13 -70 -20
-30 -7 -61 -18 -69 -24 -8 -6 -17 -10 -20 -9 -16 7 -228 -78 -274 -109 -15
-11 -27 -16 -27 -13 0 3 -13 -3 -29 -14 -16 -12 -34 -21 -40 -21 -6 0 -11 -4
-11 -10 0 -5 -6 -10 -14 -10 -8 0 -16 -3 -18 -7 -1 -5 -29 -27 -60 -50 -192
-143 -310 -349 -353 -616 -13 -82 -14 -370 -1 -432 48 -228 87 -321 190 -455
111 -145 244 -239 459 -324 20 -8 37 -13 37 -10 0 3 9 0 21 -6 11 -6 28 -13
37 -15 9 -2 40 -9 67 -15 28 -7 64 -14 80 -16 17 -3 36 -7 44 -10 70 -24 493
-23 646 1 69 11 83 13 140 24 96 18 99 18 212 47 59 15 113 30 118 34 6 4 24
10 40 14 50 12 259 98 267 110 4 6 8 8 8 3 0 -4 18 4 40 18 22 14 42 25 46 25
3 0 26 14 51 30 24 17 46 30 48 30 5 0 52 40 108 92 l50 48 -8 82 c-4 46 -7
91 -8 101 -2 23 -20 21 -67 -8 -31 -19 -178 -93 -200 -100 -3 -1 -16 -6 -30
-12 -88 -36 -227 -80 -315 -99 -111 -24 -336 -24 -425 0 -242 65 -404 242
-456 496 -13 64 -8 315 6 315 1 0 3 10 6 23 6 33 44 120 71 164 13 21 23 41
23 44 0 4 7 14 15 23 8 9 37 43 63 76 86 106 208 212 353 310 70 47 283 170
334 194 17 7 37 17 45 22 8 5 22 12 30 16 8 3 47 21 87 39 75 35 292 121 426
169 42 15 77 30 77 34 0 3 -4 33 -9 66 -6 33 -12 76 -15 95 -3 19 -10 57 -15
85 -5 27 -7 53 -5 57 11 17 -13 5 -56 -27z"/>
<path d="M7539 4378 c-2 -8 -8 -41 -13 -75 -3 -21 -7 -47 -10 -59 -18 -88 -24
-189 -11 -189 6 0 33 -9 60 -19 28 -11 79 -30 115 -43 36 -13 73 -28 82 -34
10 -5 22 -9 28 -9 5 0 33 -11 62 -24 51 -22 87 -38 98 -41 3 -1 32 -14 65 -30
33 -16 62 -29 65 -30 3 0 25 -12 50 -25 25 -13 47 -24 50 -25 19 -2 243 -135
248 -147 2 -5 10 -8 17 -8 8 0 20 -6 27 -12 7 -7 36 -29 64 -48 105 -73 265
-219 324 -298 40 -53 119 -185 125 -209 3 -12 10 -35 17 -50 41 -102 43 -300
2 -433 -63 -211 -224 -371 -419 -419 -82 -21 -87 -22 -155 -26 -36 -2 -70 -4
-75 -5 -6 -2 -12 -2 -15 -1 -3 1 -30 4 -60 6 -30 2 -71 7 -90 11 -19 4 -44 8
-55 9 -71 9 -272 79 -403 141 -51 24 -97 44 -102 44 -4 0 -10 3 -12 8 -4 9
-63 42 -76 42 -13 0 -24 -52 -28 -128 l-2 -63 52 -53 c130 -129 389 -261 681
-345 39 -11 82 -22 98 -25 15 -3 35 -7 45 -10 16 -5 36 -9 100 -21 15 -3 39
-8 54 -11 234 -47 580 -49 808 -5 430 84 690 287 824 644 13 34 24 67 24 72 1
10 8 53 17 95 25 117 24 371 0 505 -22 115 -82 260 -148 359 -57 85 -198 223
-252 248 -14 6 -25 15 -25 19 0 13 -257 135 -355 169 -84 29 -319 94 -375 104
-14 2 -43 8 -65 14 -22 6 -58 13 -80 17 -44 7 -56 9 -135 25 -30 6 -66 13 -80
15 -14 2 -52 9 -85 15 -33 7 -71 13 -85 15 -14 2 -25 4 -25 5 0 1 -13 4 -30 6
-24 4 -246 50 -325 68 -49 12 -113 30 -170 49 -36 11 -67 22 -70 22 -41 7
-212 84 -218 98 -2 4 -9 7 -16 7 -7 0 -40 20 -74 45 -34 25 -62 44 -63 43z"/>
</g>
</svg>
